<?xml version="1.0" standalone="no"?><!DOCTYPE svg PUBLIC "-//W3C//DTD SVG 1.1//EN" "http://www.w3.org/Graphics/SVG/1.1/DTD/svg11.dtd"><svg t="1575549337192" class="icon" viewBox="0 0 1024 1024" version="1.1" xmlns="http://www.w3.org/2000/svg" p-id="22089" xmlns:xlink="http://www.w3.org/1999/xlink" width="200" height="200"><defs><style type="text/css"></style></defs><path d="M512 512m-508 0a508 508 0 1 0 1016 0 508 508 0 1 0-1016 0Z" fill="#F89F6A" p-id="22090"></path><path d="M188 228h648v476.4H188z" fill="#36505F" p-id="22091"></path><path d="M211.2 251.6h601.2v429.6H211.2z" fill="#BCBFC2" p-id="22092"></path><path d="M188 704.8h648v52.4H188z" fill="#FFFFFF" p-id="22093"></path><path d="M393.2 757.2h237.2v68H393.2z" fill="#D9D8D8" p-id="22094"></path><path d="M350.4 824.8h323.2v30H350.4z" fill="#FFFFFF" p-id="22095"></path><path d="M300 228v23.6l-6.4 2.4 25.2 373.6L339.2 228zM723.6 228v23.6l6.8 2.4-25.6 373.6-20-399.6z" fill="#36505F" opacity=".37" p-id="22096"></path><path d="M318.8 169.2h386v458.4H318.8z" fill="#EDF0F2" p-id="22097"></path><path d="M318.8 169.2h386V236H318.8z" fill="#E65336" p-id="22098"></path><path d="M357.6 293.2H496v138.4H357.6z" fill="#BCBFC2" p-id="22099"></path><path d="M357.6 472.4H496v40.8H357.6zM528 472.4h138.4v40.8H528z" fill="#F2CD56" p-id="22100"></path><path d="M483.2 369.6v-14.8h-10c-1.2-7.6-4-14.4-8.4-20.4l7.2-7.2-10.4-10.4-7.2 7.2c-6-4.4-12.8-7.2-20.4-8.4v-10h-14.8V316c-7.6 1.2-14.4 4-20.4 8.4L392 317.2l-10.4 10.4 7.2 7.2c-4.4 6-7.2 12.8-8.4 20.4h-10v14.8h10c1.2 7.6 4 14.4 8.4 20.4l-7.2 7.2L392 408l7.2-7.2c6 4.4 12.8 7.2 20.4 8.4v10h14.8v-10c7.6-1.2 14.4-4 20.4-8.4l7.2 7.2 10.4-10.4-7.2-7.2c4.4-6 7.2-12.8 8.4-20.4h9.6z m-56.4 16.4c-13.2 0-23.6-10.4-23.6-23.6 0-13.2 10.4-23.6 23.6-23.6 13.2 0 23.6 10.4 23.6 23.6 0 13.2-10.4 23.6-23.6 23.6z" fill="#36505F" p-id="22101"></path><path d="M357.6 257.6h308.8v11.6H357.6z" fill="#527F99" p-id="22102"></path><path d="M520.4 298.8h146V308h-146zM520.4 340h146v9.2h-146zM520.4 381.6h146v9.2h-146zM520.4 422.8h146v9.2h-146z" fill="#39B39B" p-id="22103"></path></svg>