<?xml version="1.0" standalone="no"?><!DOCTYPE svg PUBLIC "-//W3C//DTD SVG 1.1//EN" "http://www.w3.org/Graphics/SVG/1.1/DTD/svg11.dtd"><svg t="1575549349885" class="icon" viewBox="0 0 1024 1024" version="1.1" xmlns="http://www.w3.org/2000/svg" p-id="22220" xmlns:xlink="http://www.w3.org/1999/xlink" width="200" height="200"><defs><style type="text/css"></style></defs><path d="M512 1020c178.4 0 335.2-92 425.6-230.8H86.4C176.8 928 333.6 1020 512 1020z" fill="#BCBFC2" p-id="22221"></path><path d="M512 4C231.6 4 4 231.6 4 512c0 102.4 30.4 197.6 82.4 277.2h851.2c52-79.6 82.4-174.8 82.4-277.2C1020 231.6 792.4 4 512 4z" fill="#D6E1E2" p-id="22222"></path><path d="M500.4 457.2h23.2V612h-23.2z" fill="#1F84AB" p-id="22223"></path><path d="M326 600.4h372.4v23.2H326z" fill="#1F84AB" p-id="22224"></path><path d="M168.4 434.8h167.2v354.4H168.4z" fill="#36505F" p-id="22225"></path><path d="M192.4 461.2h119.2v33.2H192.4zM192.4 669.2h119.2v7.2H192.4zM192.4 686h119.2v7.2H192.4zM192.4 702.4h119.2v7.2H192.4zM192.4 719.2h119.2v7.2H192.4zM192.4 735.6h119.2v7.2H192.4zM192.4 752.4h119.2v7.2H192.4z" fill="#BCBFC2" p-id="22226"></path><path d="M252 589.6m-12.4 0a12.4 12.4 0 1 0 24.8 0 12.4 12.4 0 1 0-24.8 0Z" fill="#E65336" p-id="22227"></path><path d="M252 633.6m-12.4 0a12.4 12.4 0 1 0 24.8 0 12.4 12.4 0 1 0-24.8 0Z" fill="#39B39B" p-id="22228"></path><path d="M688.4 434.8h167.2v354.4h-167.2z" fill="#36505F" p-id="22229"></path><path d="M712.4 461.2h119.2v33.2h-119.2zM712.4 669.2h119.2v7.2h-119.2zM712.4 686h119.2v7.2h-119.2zM712.4 702.4h119.2v7.2h-119.2zM712.4 719.2h119.2v7.2h-119.2zM712.4 735.6h119.2v7.2h-119.2zM712.4 752.4h119.2v7.2h-119.2z" fill="#BCBFC2" p-id="22230"></path><path d="M772 589.6m-12.4 0a12.4 12.4 0 1 0 24.8 0 12.4 12.4 0 1 0-24.8 0Z" fill="#E65336" p-id="22231"></path><path d="M772 633.6m-12.4 0a12.4 12.4 0 1 0 24.8 0 12.4 12.4 0 1 0-24.8 0Z" fill="#39B39B" p-id="22232"></path><path d="M356.8 157.2h310.4v91.2H356.8z" fill="#527F99" p-id="22233"></path><path d="M377.2 174.4h8.4v56.8h-8.4zM398 174.4h8.4v56.8h-8.4zM418.8 174.4h8.4v56.8h-8.4zM439.6 174.4h8.4v56.8h-8.4zM460.8 174.4h8.4v56.8h-8.4zM481.6 174.4h8.4v56.8h-8.4zM502.4 174.4h8.4v56.8h-8.4z" fill="#BCBFC2" p-id="22234"></path><path d="M592.4 202.8m-9.2 0a9.2 9.2 0 1 0 18.4 0 9.2 9.2 0 1 0-18.4 0Z" fill="#E65336" p-id="22235"></path><path d="M624 202.8m-9.2 0a9.2 9.2 0 1 0 18.4 0 9.2 9.2 0 1 0-18.4 0Z" fill="#39B39B" p-id="22236"></path><path d="M356.8 264h310.4v91.2H356.8z" fill="#527F99" p-id="22237"></path><path d="M377.2 281.2h8.4v56.8h-8.4zM398 281.2h8.4v56.8h-8.4zM418.8 281.2h8.4v56.8h-8.4zM439.6 281.2h8.4v56.8h-8.4zM460.8 281.2h8.4v56.8h-8.4zM481.6 281.2h8.4v56.8h-8.4zM502.4 281.2h8.4v56.8h-8.4z" fill="#BCBFC2" p-id="22238"></path><path d="M592.4 309.6m-9.2 0a9.2 9.2 0 1 0 18.4 0 9.2 9.2 0 1 0-18.4 0Z" fill="#E65336" p-id="22239"></path><path d="M624 309.6m-9.2 0a9.2 9.2 0 1 0 18.4 0 9.2 9.2 0 1 0-18.4 0Z" fill="#39B39B" p-id="22240"></path><path d="M356.8 370.4h310.4v91.2H356.8z" fill="#527F99" p-id="22241"></path><path d="M377.2 388h8.4v56.8h-8.4zM398 388h8.4v56.8h-8.4zM418.8 388h8.4v56.8h-8.4zM439.6 388h8.4v56.8h-8.4zM460.8 388h8.4v56.8h-8.4zM481.6 388h8.4v56.8h-8.4zM502.4 388h8.4v56.8h-8.4z" fill="#BCBFC2" p-id="22242"></path><path d="M592.4 416.4m-9.2 0a9.2 9.2 0 1 0 18.4 0 9.2 9.2 0 1 0-18.4 0Z" fill="#E65336" p-id="22243"></path><path d="M624 416.4m-9.2 0a9.2 9.2 0 1 0 18.4 0 9.2 9.2 0 1 0-18.4 0Z" fill="#39B39B" p-id="22244"></path></svg>