<?xml version="1.0" standalone="no"?><!DOCTYPE svg PUBLIC "-//W3C//DTD SVG 1.1//EN" "http://www.w3.org/Graphics/SVG/1.1/DTD/svg11.dtd"><svg t="1575549353795" class="icon" viewBox="0 0 1024 1024" version="1.1" xmlns="http://www.w3.org/2000/svg" p-id="22361" xmlns:xlink="http://www.w3.org/1999/xlink" width="200" height="200"><defs><style type="text/css"></style></defs><path d="M512 8C233.6 8 8 233.6 8 512c0 128.4 48 245.6 127.2 334.8 92.4 104 226.8 169.6 376.8 169.6s284.4-65.6 376.8-169.6C968 757.6 1016 640.4 1016 512 1016 233.6 790.4 8 512 8z" fill="#FFD778" p-id="22362"></path><path d="M711.6 166.8H260.8c-14.4 0-26 11.6-26 26v644c0 14.4 11.6 26 26 26H712c14.4 0 26-11.6 26-26v-644c0-14.4-12-26-26.4-26z" fill="#36505F" p-id="22363"></path><path d="M256.4 242H716v522.4H256.4z" fill="#EDF0F2" p-id="22364"></path><path d="M486 808.8m-27.6 0a27.6 27.6 0 1 0 55.2 0 27.6 27.6 0 1 0-55.2 0Z" fill="#527F99" p-id="22365"></path><path d="M438.8 197.2h94.8v13.2h-94.8z" fill="#527F99" p-id="22366"></path><path d="M544.4 496.8l-15.6-44.8-21.6 7.6c-4.8-7.2-10.4-13.6-16.8-18.8l10-20.4-42.8-20.4-10 20.4c-8.4-1.6-16.8-2-25.6-1.6l-7.6-21.6-44.8 15.6 7.6 21.6c-7.2 4.8-13.6 10.4-19.2 16.8l-20.4-10-20.4 42.8 20.4 10c-1.6 8.4-2 16.8-1.6 25.6l-21.6 7.6 15.6 44.8 21.6-7.6c4.8 7.2 10.4 13.6 16.8 19.2l-10 20.4 42.8 20.4 10-20.4c8.4 1.6 16.8 2 25.6 1.6l7.6 21.6 44.8-15.6-7.6-21.6c7.2-4.8 13.6-10.4 18.8-16.8l20.4 10 20.4-42.8-20.4-10c1.6-8.4 2-16.8 1.6-25.6l22-8zM445.2 556c-24.4 8.4-50.8-4.4-59.2-28.4-8.4-24.4 4.4-50.8 28.8-59.2 24.4-8.4 50.8 4.4 59.2 28.8s-4.8 50.4-28.8 58.8z" fill="#F3B546" p-id="22367"></path><path d="M858.4 540l-21.6-61.2-29.6 10.4c-6.8-10-14.4-18.4-23.2-26l13.6-28-58.4-28-13.6 28c-11.2-2.4-23.2-2.8-34.8-2l-10.4-29.6-61.2 21.6 10.4 29.6c-10 6.8-18.4 14.4-26 23.2l-28-13.6-28 58.4 28 13.6c-2.4 11.2-2.8 23.2-2 34.8l-29.6 10.4 21.6 61.2 29.6-10.4c6.8 10 14.4 18.4 23.2 26l-13.6 28 58.4 28 13.6-28c11.2 2.4 23.2 2.8 34.8 2l10.4 29.6 61.2-21.6-10.4-29.6c10-6.8 18.4-14.4 26-23.2l28 13.6 28-58.4-28-13.6c2.4-11.2 2.8-23.2 2-34.8l29.6-10.4z m-136 80.8c-33.2 11.6-69.6-6-81.2-39.2-11.6-33.2 6-69.6 39.2-81.2 33.2-11.6 69.6 6 81.2 39.2 11.6 33.2-5.6 69.6-39.2 81.2z" fill="#239BC1" p-id="22368"></path><path d="M623.2 403.6v-25.6h-12.4c-1.2-4.4-2.8-8.8-5.2-12.8l8.8-8.8-18-18-8.8 8.8c-4-2.4-8-4-12.8-5.2v-12.4h-25.6v12.4c-4.4 1.2-8.8 2.8-12.8 5.2l-8.8-8.8-18 18 8.8 8.8c-2.4 4-4 8-5.2 12.8h-12.4v25.6h12.4c1.2 4.4 2.8 8.8 5.2 12.8l-8.8 8.8 18 18 8.8-8.8c4 2.4 8 4 12.8 5.2v12.4h25.6v-12.4c4.4-1.2 8.8-2.8 12.8-5.2l8.8 8.8 18-18-8.8-8.8c2.4-4 4-8 5.2-12.8h12.4z m-60.8 12c-14 0-25.2-11.2-25.2-25.2s11.2-25.2 25.2-25.2 25.2 11.2 25.2 25.2-11.2 25.2-25.2 25.2z" fill="#E65336" p-id="22369"></path></svg>