<?xml version="1.0" standalone="no"?><!DOCTYPE svg PUBLIC "-//W3C//DTD SVG 1.1//EN" "http://www.w3.org/Graphics/SVG/1.1/DTD/svg11.dtd"><svg t="1575549357741" class="icon" viewBox="0 0 1024 1024" version="1.1" xmlns="http://www.w3.org/2000/svg" p-id="22486" xmlns:xlink="http://www.w3.org/1999/xlink" width="200" height="200"><defs><style type="text/css"></style></defs><path d="M512 512m-508 0a508 508 0 1 0 1016 0 508 508 0 1 0-1016 0Z" fill="#FFD778" p-id="22487"></path><path d="M481.6 841.6h103.2v-68.8c34.4-6.8 66.4-20.4 94.4-39.2l48.8 48.8 72.8-72.8-45.6-45.6h-100.8c-33.2 26.8-75.2 43.2-121.2 43.2-106.4 0-192.4-86-192.4-192.4 0-20.4 3.2-39.6 8.8-58H276.8c-0.4 2-1.2 4.4-1.6 6.4H206.4v103.2h68.8c6.8 34.4 20.4 66.4 39.2 94.4l-48.8 48.8 72.8 72.8 48.8-48.8c28 18.8 60 32.4 94.4 39.2v68.8zM725.6 514.8c0 23.2-4.4 45.6-12 66.4h74c1.2-4.8 2.4-10 3.6-14.8H860v-103.2h-68.8c-6.8-34.4-20.4-66.4-39.2-94.4L800.8 320 728 247.2 679.2 296c-28-18.8-60-32.4-94.4-39.2V188h-103.2v68.8c-34.4 6.8-66.4 20.4-94.4 39.2L338.4 247.2 265.6 320.4l48.8 48.8c-2.8 4-5.2 8-7.6 12h88c34.8-36 84-58.8 138-58.8 106.8 0 192.8 86.4 192.8 192.4z" fill="#36505F" p-id="22488"></path><path d="M429.2 467.2l84.4-46.8-84.4-46.8v23.6H156.8v46h272.4z" fill="#3EA9D7" p-id="22489"></path><path d="M844.8 670.8l84.8-46.4-84.8-46.8v23.6h-226.8v46h226.8z" fill="#39B39B" p-id="22490"></path><path d="M410.4 548.8c50.4 0 91.2 40.8 91.2 91.2 0 18-5.2 35.2-14.4 49.2 11.2 2.8 23.2 4.8 35.2 5.6 4.8-9.6 8.4-19.6 10.4-30.4h32.8v-48.8h-32.8c-3.2-16.4-9.6-31.6-18.4-44.8l23.2-23.2-34.4-34.4-23.2 22.8c-13.2-8.8-28.4-15.2-44.8-18.4v-32.8H386v32.8c-11.6 2.4-22.4 6.4-32.8 11.6 0.8 12 3.2 23.6 6.4 35.2 14.4-10 32-15.6 50.8-15.6z" fill="#E65336" p-id="22491"></path><path d="M156.8 226.4h49.6v194H156.8z" fill="#3EA9D7" p-id="22492"></path><path d="M618 456.8h49.6V608h-49.6z" fill="#39B39B" p-id="22493"></path></svg>